# xmcd
#
# Track frame offsets: 
#        150
#        14074
#        33445
#        47455
#        64633
#        75224
#        86612
#        102246
#        123753
#        139847
#
# Disc length: 2100 seconds
#
# Revision: 0
# Processed by: cddbd v1.5.2PL0 Copyright (c) Steve Scherf et al.
# Submitted via: ExactAudioCopy v0.99pb5
#
DISCID=7308320a
DTITLE=Black Market Art - Kids
DYEAR=2007
DGENRE=Blues
TTITLE0=Yell and Yell
TTITLE1=The Corner Song
TTITLE2=I Want to Die
TTITLE3=Walking From the House to the Car and Going Camping the Next D
TTITLE3=ay
TTITLE4=I Live for Now
TTITLE5=We're Not Dead
TTITLE6=Come Back, Girl
TTITLE7=Grey Bench Blues
TTITLE8=Make Down
TTITLE9=Spots and All
EXTD=
EXTT0=
EXTT1=
EXTT2=
EXTT3=
EXTT4=
EXTT5=
EXTT6=
EXTT7=
EXTT8=
EXTT9=
PLAYORDER=
